<svg
  width="60"
  height="60"
  viewBox="0 0 60 60"
  fill="none"
  xmlns="http://www.w3.org/2000/svg">
  <circle cx="30" cy="30" r="30" fill="#FF697F" />
  <path
    d="M39 25.6667C39 23.0893 41.0893 21 43.6667 21C44.9553 21 46 22.0447 46 23.3333V36.6667C46 37.9553 44.9553 39 43.6667 39C41.0893 39 39 36.9107 39 34.3333V25.6667Z"
    fill="white"
  />
  <rect x="14" y="18" width="23" height="24" rx="6" fill="white" />
  <path
    d="M28.5 27.9793C30.0556 28.8774 30.0556 31.1226 28.5 32.0207L25 34.0415C23.4444 34.9396 21.5 33.8169 21.5 32.0207L21.5 27.9793C21.5 26.1831 23.4444 25.0604 25 25.9585L28.5 27.9793Z"
    fill="#FF6E83"
  />
</svg>
